<?xml version="1.0" standalone="no"?>
<!DOCTYPE svg PUBLIC "-//W3C//DTD SVG 20010904//EN"
 "http://www.w3.org/TR/2001/REC-SVG-20010904/DTD/svg10.dtd">
<svg version="1.0" xmlns="http://www.w3.org/2000/svg"
 width="1152.000000pt" height="1152.000000pt" viewBox="0 0 1152.000000 1152.000000"
 preserveAspectRatio="xMidYMid meet">
<metadata>
Created by potrace 1.11, written by Peter Selinger 2001-2013
</metadata>
<g transform="translate(0.000000,1152.000000) scale(0.100000,-0.100000)"
fill="#000000" stroke="none">
<path d="M1055 11511 c-41 -14 -81 -37 -103 -58 -13 -13 -20 -23 -16 -23 5 0
0 -6 -9 -12 -9 -7 -23 -33 -32 -57 -13 -39 -15 -451 -15 -3790 1 -3936 0
-3828 42 -3941 47 -127 146 -245 313 -374 139 -106 138 -106 147 -106 8 0 65
-37 78 -50 6 -6 23 -16 136 -75 49 -27 172 -98 274 -160 102 -62 250 -152 330
-200 80 -48 156 -95 170 -103 14 -9 26 -15 28 -13 2 1 17 -9 33 -23 17 -15 37
-26 44 -26 8 0 19 -8 24 -17 6 -10 11 -14 11 -9 0 4 15 -3 34 -18 19 -14 38
-26 42 -26 4 0 30 -15 58 -33 28 -19 67 -42 86 -53 19 -10 37 -22 38 -26 2 -5
10 -8 18 -8 8 0 14 -4 14 -10 0 -5 4 -10 9 -10 5 0 37 -17 70 -38 34 -20 73
-44 89 -52 15 -9 46 -28 69 -43 24 -15 45 -27 48 -27 3 0 11 -5 18 -10 21 -19
339 -210 348 -210 5 0 9 -4 9 -9 0 -5 8 -11 18 -14 22 -8 105 -57 112 -67 3
-4 10 -9 16 -11 9 -4 335 -199 402 -241 15 -10 38 -23 52 -30 14 -7 27 -15 30
-18 10 -12 360 -220 369 -220 5 0 11 -4 13 -8 4 -11 285 -182 298 -182 6 0 10
-4 10 -10 0 -5 5 -10 10 -10 6 0 34 -16 63 -35 28 -19 57 -35 64 -35 7 0 13
-4 13 -8 0 -5 18 -17 40 -28 22 -10 40 -22 40 -26 0 -5 4 -8 9 -8 5 0 76 -41
158 -91 81 -51 162 -100 178 -109 17 -9 90 -54 163 -99 74 -44 138 -81 143
-81 5 0 9 -4 9 -10 0 -5 7 -10 15 -10 8 0 15 -3 15 -8 0 -4 15 -14 33 -22 17
-7 41 -22 51 -32 11 -10 23 -18 27 -18 4 0 36 -18 70 -39 35 -22 100 -61 144
-87 44 -26 82 -50 85 -53 3 -3 25 -17 50 -30 25 -14 94 -55 155 -93 60 -37
112 -68 115 -68 4 0 6 817 6 1815 l-1 1815 827 0 c455 0 830 0 835 1 4 1 13 1
18 0 13 -2 451 -2 462 0 4 1 13 1 18 0 13 -2 451 -2 462 0 4 1 13 1 18 0 13
-2 451 -2 462 0 4 1 13 1 18 0 13 -2 451 -2 462 0 4 1 13 1 18 0 30 -4 457 -1
465 4 5 3 11 1 15 -4 3 -7 15 -7 30 -1 16 6 27 6 31 -1 4 -6 10 -7 17 0 9 7
12 958 12 3898 l0 3888 -4765 2 c-2621 0 -4774 -2 -4785 -6z"/>
</g>
</svg>
